<?xml version="1.0" encoding="utf-8"?>
<!-- Generator: Adobe Illustrator 23.0.3, SVG Export Plug-In . SVG Version: 6.00 Build 0)  -->
<svg version="1.1" id="Layer_1" xmlns="http://www.w3.org/2000/svg" xmlns:xlink="http://www.w3.org/1999/xlink" x="0px" y="0px"
	 viewBox="0 0 11 116.8" style="enable-background:new 0 0 11 116.8;" xml:space="preserve">
<style type="text/css">
	.st0{fill:#333333;}
	.st1{fill:none;stroke:#333333;stroke-width:0.5;stroke-miterlimit:10;}
</style>
<g>
	<path class="st0" d="M3.6,31.2v-1.1H0.7v-0.7h7.9v1.8c0,1-0.2,1.7-0.5,2.1S7,34,6.2,34c-0.9,0-1.5-0.2-1.9-0.7S3.6,32.2,3.6,31.2z
		 M8,31.2v-1.1H4.2v1.1c0,0.7,0.1,1.3,0.4,1.6s0.8,0.5,1.5,0.5c0.7,0,1.2-0.2,1.4-0.5S8,32,8,31.2z"/>
	<path class="st0" d="M0.7,37.1h7.9v0.7H4.9v3.4h3.6v0.7H0.7v-0.7h3.6v-3.4H0.7V37.1z"/>
	<path class="st0" d="M4.7,44.7c0.6,0,1.2,0,1.6,0.1c0.5,0.1,0.9,0.2,1.2,0.4c0.7,0.4,1.1,1,1.1,2c0,1.1-0.5,1.9-1.6,2.2
		c-0.6,0.2-1.3,0.3-2.1,0.3s-1.5,0-1.9-0.1c-0.5-0.1-0.9-0.2-1.3-0.4c-0.8-0.4-1.2-1-1.2-2c0-1,0.4-1.6,1.2-2
		C2.5,44.9,3.5,44.7,4.7,44.7z M4.6,49c0.4,0,0.8,0,1,0c0.3,0,0.6-0.1,0.9-0.1c0.3-0.1,0.6-0.2,0.8-0.3c0.2-0.1,0.4-0.3,0.5-0.5
		c0.1-0.2,0.2-0.5,0.2-0.8S8,46.6,7.9,46.4c-0.1-0.2-0.3-0.4-0.5-0.5c-0.2-0.1-0.5-0.2-0.8-0.3c-0.5-0.1-1-0.2-1.7-0.2
		c-0.6,0-1.1,0-1.5,0.1c-0.4,0-0.7,0.1-1.1,0.2c-0.7,0.2-1.1,0.7-1.1,1.5c0,0.8,0.4,1.3,1.1,1.5C3,48.9,3.8,49,4.6,49z"/>
	<path class="st0" d="M8,52.6h0.6v4.8H8v-2.1H0.7v-0.7H8V52.6z"/>
	<path class="st0" d="M4.7,60.3c0.6,0,1.2,0,1.6,0.1c0.5,0.1,0.9,0.2,1.2,0.4c0.7,0.4,1.1,1,1.1,2c0,1.1-0.5,1.9-1.6,2.2
		c-0.6,0.2-1.3,0.3-2.1,0.3s-1.5,0-1.9-0.1c-0.5-0.1-0.9-0.2-1.3-0.4c-0.8-0.4-1.2-1-1.2-2c0-1,0.4-1.6,1.2-2
		C2.5,60.5,3.5,60.3,4.7,60.3z M4.6,64.6c0.4,0,0.8,0,1,0c0.3,0,0.6-0.1,0.9-0.1c0.3-0.1,0.6-0.2,0.8-0.3c0.2-0.1,0.4-0.3,0.5-0.5
		c0.1-0.2,0.2-0.5,0.2-0.8S8,62.2,7.9,62c-0.1-0.2-0.3-0.4-0.5-0.5c-0.2-0.1-0.5-0.2-0.8-0.3c-0.5-0.1-1-0.2-1.7-0.2
		c-0.6,0-1.1,0-1.5,0.1c-0.4,0-0.7,0.1-1.1,0.2c-0.7,0.2-1.1,0.7-1.1,1.5c0,0.8,0.4,1.3,1.1,1.5C3,64.5,3.8,64.6,4.6,64.6z"/>
	<path class="st0" d="M1.6,68.7c0.6-0.4,1.7-0.7,3.1-0.7c1.4,0,2.4,0.2,3.1,0.7c0.6,0.4,1,1.2,1,2.1c0,0.6-0.1,1.3-0.4,2l-0.6-0.2
		C8,72,8.1,71.4,8.1,70.9c0-0.8-0.3-1.3-0.8-1.6c-0.5-0.3-1.4-0.5-2.6-0.5c-1.2,0-2.1,0.2-2.6,0.5c-0.5,0.3-0.8,0.8-0.8,1.5
		c0,0.4,0.1,0.9,0.3,1.5h2.4v-1.4h0.6v2H1.1c-0.3-0.8-0.4-1.5-0.4-2.1C0.6,69.9,0.9,69.2,1.6,68.7z"/>
	<path class="st0" d="M4,78.6c0-0.4,0-0.7,0-0.8v-1H0.7v-0.7h7.9v1.8c0,1-0.2,1.7-0.5,2.1c-0.3,0.5-0.9,0.7-1.8,0.7
		c-0.6,0-1-0.1-1.4-0.3c-0.3-0.2-0.6-0.6-0.8-1.1c-1,0.5-2.2,1-3.4,1.5v-0.7C1.9,79.6,3,79.2,4,78.6z M8,77.9v-1.1H4.5v1
		c0,0.7,0.1,1.3,0.4,1.7S5.6,80,6.3,80c0.7,0,1.1-0.2,1.3-0.5C7.9,79.2,8,78.6,8,77.9z"/>
	<path class="st0" d="M0.7,83.4l7.9,2.3v1.2L0.7,89v-0.7l1.8-0.5v-3.2l-1.8-0.5V83.4z M3.1,87.6L8,86.3v-0.2l-4.8-1.4V87.6z"/>
	<path class="st0" d="M3.6,93.6v-1.1H0.7v-0.7h7.9v1.8c0,1-0.2,1.7-0.5,2.1s-1,0.7-1.9,0.7c-0.9,0-1.5-0.2-1.9-0.7
		S3.6,94.6,3.6,93.6z M8,93.6v-1.1H4.2v1.1c0,0.7,0.1,1.3,0.4,1.6s0.8,0.5,1.5,0.5c0.7,0,1.2-0.2,1.4-0.5S8,94.4,8,93.6z"/>
	<path class="st0" d="M0.7,99.5h7.9v0.7H4.9v3.4h3.6v0.7H0.7v-0.7h3.6v-3.4H0.7V99.5z"/>
	<path class="st0" d="M4.1,109.9H0.7v-0.6h3.4l4.5-2.3v0.8l-3.8,1.8v0l3.8,1.8v0.8L4.1,109.9z"/>
</g>
<line class="st1" x1="4.7" y1="23.8" x2="4.7" y2="-0.5"/>
</svg>
