<?xml version="1.0" encoding="utf-8"?>
<!-- Generator: Adobe Illustrator 23.0.3, SVG Export Plug-In . SVG Version: 6.00 Build 0)  -->
<svg version="1.1" id="Layer_1" xmlns="http://www.w3.org/2000/svg" xmlns:xlink="http://www.w3.org/1999/xlink" x="0px" y="0px"
	 viewBox="0 0 11 106" style="enable-background:new 0 0 11 106;" xml:space="preserve">
<style type="text/css">
	.st0{fill:#333333;}
</style>
<g>
	<path class="st0" d="M1.3,2.3l7.9-0.9v0.7L1.9,2.9V3l3.8,1.1v0.6l-3.8,1v0.1l7.3,0.8v0.7L1.3,6.5V5.3l3.4-0.9v0L1.3,3.5V2.3z"/>
	<path class="st0" d="M5.3,9.1c0.6,0,1.2,0,1.6,0.1s0.9,0.2,1.2,0.4c0.7,0.4,1.1,1,1.1,2c0,1.1-0.5,1.9-1.6,2.2
		c-0.6,0.2-1.3,0.3-2.1,0.3s-1.5,0-1.9-0.1c-0.5-0.1-0.9-0.2-1.3-0.4c-0.8-0.4-1.2-1-1.2-2c0-1,0.4-1.6,1.2-2C3,9.2,4,9.1,5.3,9.1z
		 M5.2,13.4c0.4,0,0.8,0,1,0c0.3,0,0.6-0.1,0.9-0.1c0.3-0.1,0.6-0.2,0.8-0.3s0.4-0.3,0.5-0.5c0.1-0.2,0.2-0.5,0.2-0.8
		S8.5,11,8.4,10.8c-0.1-0.2-0.3-0.4-0.5-0.5C7.7,10.1,7.4,10,7.1,9.9C6.6,9.8,6,9.8,5.4,9.8c-0.6,0-1.1,0-1.5,0.1S3.2,10,2.9,10.1
		c-0.7,0.2-1.1,0.7-1.1,1.5c0,0.8,0.4,1.3,1.1,1.5C3.5,13.3,4.3,13.4,5.2,13.4z"/>
	<path class="st0" d="M4.5,19c0-0.4,0-0.7,0-0.8v-1H1.3v-0.7h7.9v1.8c0,1-0.2,1.7-0.5,2.1c-0.3,0.5-0.9,0.7-1.8,0.7
		c-0.6,0-1-0.1-1.4-0.3c-0.3-0.2-0.6-0.6-0.8-1.1c-1,0.5-2.2,1-3.4,1.5v-0.7C2.4,20,3.5,19.5,4.5,19z M8.5,18.3v-1.1H5v1
		c0,0.7,0.1,1.3,0.4,1.7c0.3,0.4,0.7,0.6,1.4,0.6s1.1-0.2,1.3-0.5C8.4,19.5,8.5,19,8.5,18.3z"/>
	<path class="st0" d="M1.3,23.8h7.9v0.7H5.4l0.1,1.2c1,0.7,2,1.3,3,1.8l0.5,0.3v0.7c-1.4-0.7-2.7-1.4-3.8-2.1
		c-1,0.6-2.2,1.3-3.4,1.9l-0.6,0.3v-0.8c1.4-0.7,2.6-1.3,3.7-2l-0.1-1.2H1.3V23.8z"/>
	<path class="st0" d="M5,32.9c0.2-0.7,0.4-1.2,0.8-1.6c0.3-0.3,0.8-0.5,1.4-0.5c0.6,0,1.1,0.2,1.5,0.7c0.4,0.4,0.5,1,0.5,1.7
		c0,0.7-0.1,1.4-0.4,2.1l-0.6-0.2c0.2-0.7,0.4-1.3,0.4-1.8s-0.1-1-0.4-1.3s-0.6-0.4-1-0.4c-0.4,0-0.8,0.1-1,0.4
		c-0.2,0.2-0.4,0.7-0.6,1.4c-0.2,0.7-0.4,1.2-0.7,1.6c-0.3,0.3-0.8,0.5-1.5,0.5s-1.2-0.2-1.6-0.7c-0.4-0.5-0.6-1.1-0.6-1.8
		c0-0.5,0.1-1.2,0.3-2.1L2.1,31c-0.2,0.8-0.3,1.5-0.3,2s0.1,0.9,0.4,1.2s0.7,0.5,1.2,0.5s0.9-0.1,1.1-0.3C4.7,34.1,4.9,33.6,5,32.9z
		"/>
	<path class="st0" d="M5.1,51.3c1.4,0,2.4,0.2,3,0.5C8.7,52.2,9,52.8,9,53.6c0,0.8-0.3,1.4-0.9,1.8s-1.6,0.5-3,0.5s-2.4-0.2-3-0.5
		c-0.6-0.4-0.9-0.9-0.9-1.8c0-0.8,0.3-1.4,0.9-1.8C2.7,51.5,3.7,51.3,5.1,51.3z M2.5,52.4C2,52.6,1.8,53,1.8,53.6s0.3,1,0.8,1.2
		C3,55,3.9,55.1,5.1,55.1s2-0.1,2.5-0.3s0.7-0.6,0.7-1.2s-0.2-1-0.8-1.2s-1.3-0.3-2.5-0.3S3,52.2,2.5,52.4z"/>
	<path class="st0" d="M1.3,62.1v-4.5h0.6v2.1h6.2l-0.9-2l0.6-0.3l1,2.3v0.6h-7v1.7H1.3z"/>
	<path class="st0" d="M4.4,68.7h0.5v6H4.4V68.7z"/>
	<path class="st0" d="M4.4,74.7h0.5v6H4.4V74.7z"/>
	<path class="st0" d="M4.4,80.7h0.5v6H4.4V80.7z"/>
	<path class="st0" d="M5.1,93.5c1.4,0,2.4,0.2,3,0.5C8.7,94.4,9,95,9,95.8c0,0.8-0.3,1.4-0.9,1.8s-1.6,0.5-3,0.5s-2.4-0.2-3-0.5
		c-0.6-0.4-0.9-0.9-0.9-1.8c0-0.8,0.3-1.4,0.9-1.8C2.7,93.7,3.7,93.5,5.1,93.5z M2.5,94.6c-0.5,0.2-0.8,0.6-0.8,1.2s0.3,1,0.8,1.2
		c0.5,0.2,1.4,0.3,2.5,0.3s2-0.1,2.5-0.3s0.7-0.6,0.7-1.2s-0.2-1-0.8-1.2s-1.3-0.3-2.5-0.3S3,94.3,2.5,94.6z"/>
	<path class="st0" d="M4.7,100.2c0.4-0.4,1-0.6,1.7-0.6s1.3,0.2,1.8,0.6c0.5,0.4,0.7,1,0.7,1.7c0,0.7-0.2,1.3-0.7,1.7
		c-0.4,0.4-1.1,0.6-1.8,0.6c-1.1,0-2-0.2-2.8-0.6c-0.8-0.4-1.7-1-2.6-1.8l0.1-0.8c0.8,0.8,1.5,1.3,2,1.6c0.5,0.3,1.1,0.6,1.7,0.8
		c-0.5-0.5-0.8-1-0.8-1.5C4.1,101.2,4.3,100.6,4.7,100.2z M6.5,100.3c-1.2,0-1.8,0.5-1.8,1.6c0,0.5,0.2,0.9,0.5,1.2
		c0.3,0.3,0.7,0.5,1.2,0.5c1.2,0,1.9-0.5,1.9-1.6c0-0.5-0.2-0.9-0.5-1.2S7.1,100.3,6.5,100.3z"/>
</g>
</svg>
